<svg width="48" height="48" viewBox="0 0 48 48" fill="none" xmlns="http://www.w3.org/2000/svg">
<rect width="48" height="48" rx="24" fill="#157698"/>
<path d="M18.4324 13.9463C19.3561 13.9463 20.2087 14.0173 20.9902 14.2305C21.7718 14.3726 22.4112 14.6568 22.9796 15.012C23.548 15.3673 23.9743 15.8646 24.2585 16.5041C24.5427 17.1435 24.6848 17.925 24.6848 18.7776C24.6848 19.7723 24.4716 20.6249 23.9743 21.2644C23.548 21.9038 22.8375 22.4722 21.9849 22.8985C23.1927 23.2537 24.1164 23.8932 24.6848 24.7458C25.2532 25.5984 25.6084 26.6641 25.6084 27.8719C25.6084 28.8666 25.3953 29.7192 25.04 30.4297C24.6848 31.1402 24.1164 31.7796 23.4769 32.2059C22.8375 32.6322 22.0559 32.9875 21.2034 33.2006C20.3508 33.4138 19.4982 33.5559 18.6456 33.5559H9.125V13.9463H18.4324ZM17.864 21.9038C18.6456 21.9038 19.285 21.6906 19.7824 21.3354C20.2797 20.9802 20.4929 20.3407 20.4929 19.5592C20.4929 19.1329 20.4218 18.7066 20.2797 18.4224C20.1376 18.1382 19.9245 17.925 19.6403 17.7119C19.3561 17.5698 19.0719 17.4277 18.7166 17.3566C18.3614 17.2856 18.0061 17.2856 17.5799 17.2856H13.459V21.9038H17.864ZM18.0772 30.2876C18.5035 30.2876 18.9298 30.2165 19.285 30.1455C19.6403 30.0744 19.9955 29.9324 20.2797 29.7192C20.5639 29.5061 20.7771 29.2929 20.9902 28.9377C21.1323 28.5824 21.2744 28.1561 21.2744 27.6588C21.2744 26.6641 20.9902 25.9536 20.4218 25.4563C19.8534 25.03 19.0719 24.8168 18.1482 24.8168H13.459V30.2876H18.0772ZM31.7897 30.2165C32.3581 30.7849 33.2107 31.0691 34.3475 31.0691C35.129 31.0691 35.8395 30.856 36.4079 30.5007C36.9763 30.0744 37.3315 29.6482 37.4736 29.2219H40.955C40.3866 30.927 39.534 32.1349 38.3973 32.9164C37.2605 33.6269 35.9105 34.0532 34.2764 34.0532C33.1396 34.0532 32.1449 33.8401 31.2213 33.4848C30.2977 33.1296 29.5872 32.6322 28.9477 31.9217C28.3083 31.2823 27.8109 30.5007 27.5267 29.5771C27.1715 28.6535 27.0294 27.6588 27.0294 26.522C27.0294 25.4563 27.1715 24.4616 27.5267 23.5379C27.882 22.6143 28.3793 21.8327 29.0188 21.1223C29.6582 20.4828 30.4398 19.9144 31.2923 19.5592C32.216 19.2039 33.1396 18.9908 34.2764 18.9908C35.4842 18.9908 36.55 19.2039 37.4736 19.7013C38.3973 20.1986 39.1077 20.767 39.6761 21.6196C40.2445 22.4011 40.6708 23.3248 40.955 24.3195C41.0971 25.3142 41.1682 26.3088 41.0971 27.4456H30.795C30.795 28.5824 31.2213 29.6482 31.7897 30.2165ZM36.2658 22.7564C35.7684 22.259 34.9869 21.9748 34.0633 21.9748C33.4238 21.9748 32.9265 22.1169 32.5002 22.3301C32.0739 22.5432 31.7897 22.8274 31.5055 23.1116C31.2213 23.3958 31.0792 23.7511 31.0081 24.1063C30.9371 24.4616 30.866 24.7458 30.866 25.03H37.2605C37.1184 23.9642 36.7631 23.2537 36.2658 22.7564ZM30.0135 15.2962H37.971V17.2146H30.0135V15.2962Z" fill="#F2F2F2"/>
</svg>
