<svg width="48" height="48" viewBox="0 0 48 48" fill="none" xmlns="http://www.w3.org/2000/svg">
<rect width="48" height="48" rx="24" fill="#157698"/>
<path d="M24 39.9811C15.175 39.9811 8 32.8186 8 24.0061C8 15.1811 15.175 8.01855 24 8.01855C32.825 8.01855 40 15.1811 40 23.9936C40 32.8061 32.825 39.9811 24 39.9811ZM37.4875 26.1811C37.025 26.0311 33.2625 24.9186 28.975 25.5936C30.7625 30.4936 31.4875 34.4936 31.625 35.3186C34.7 33.2561 36.8875 29.9811 37.4875 26.1811ZM29.3375 36.5811C29.1375 35.3811 28.3375 31.2061 26.425 26.2311C26.4 26.2436 26.3625 26.2561 26.3375 26.2561C18.625 28.9436 15.8625 34.2811 15.6125 34.7811C17.925 36.5811 20.8375 37.6561 24 37.6561C25.8875 37.6686 27.7 37.2811 29.3375 36.5811ZM13.85 33.1436C14.1625 32.6186 17.9125 26.4186 24.9625 24.1311C25.1375 24.0686 25.325 24.0186 25.5 23.9686C25.1625 23.1936 24.7875 22.4186 24.3875 21.6561C17.5625 23.6936 10.9375 23.6061 10.3375 23.5936C10.3375 23.7311 10.325 23.8686 10.325 24.0061C10.3375 27.5186 11.6625 30.7186 13.85 33.1436ZM10.625 21.2186C11.2375 21.2311 16.8625 21.2561 23.2625 19.5561C21 15.5311 18.55 12.1561 18.2 11.6686C14.3625 13.4686 11.5125 16.9936 10.625 21.2186ZM20.8 10.7436C21.175 11.2436 23.6625 14.6186 25.9 18.7311C30.7625 16.9061 32.8125 14.1561 33.0625 13.8061C30.65 11.6686 27.475 10.3686 24 10.3686C22.9 10.3686 21.825 10.5061 20.8 10.7436ZM34.575 15.3811C34.2875 15.7686 32 18.7061 26.95 20.7686C27.2625 21.4186 27.575 22.0811 27.8625 22.7436C27.9625 22.9811 28.0625 23.2186 28.1625 23.4436C32.7125 22.8686 37.225 23.7936 37.675 23.8811C37.6375 20.6686 36.4875 17.7061 34.575 15.3811Z" fill="#F2F2F2"/>
</svg>
