<svg width="48" height="48" viewBox="0 0 48 48" fill="none" xmlns="http://www.w3.org/2000/svg">
<rect width="48" height="48" rx="24" fill="#157698"/>
<path d="M24 7C14.6262 7 7 14.6262 7 24C7 33.3738 14.6262 41 24 41C33.3738 41 41 33.3738 41 24C41 14.6262 33.3738 7 24 7ZM10.4 24C10.4 22.4717 10.6652 21.0046 11.1327 19.6327L13.8 22.3L17.2 25.7V29.1L20.6 32.5L22.3 34.2V37.4827C15.6037 36.6412 10.4 30.9224 10.4 24ZM34.761 32.2841C33.6509 31.3899 31.9679 30.8 30.8 30.8V29.1C30.8 28.1983 30.4418 27.3335 29.8042 26.6958C29.1665 26.0582 28.3017 25.7 27.4 25.7H20.6V20.6C21.5017 20.6 22.3665 20.2418 23.0042 19.6042C23.6418 18.9665 24 18.1017 24 17.2V15.5H25.7C26.6017 15.5 27.4665 15.1418 28.1042 14.5042C28.7418 13.8665 29.1 13.0017 29.1 12.1V11.4013C34.0776 13.4226 37.6 18.305 37.6 24C37.5997 27 36.6009 29.9145 34.761 32.2841Z" fill="#F2F2F2"/>
</svg>
